<?xml version="1.0" encoding="iso-8859-1"?>
<!-- Uploaded to: SVG Repo, www.svgrepo.com, Generator: SVG Repo Mixer Tools -->
<svg height="800px" width="800px" version="1.1" id="Layer_1" xmlns="http://www.w3.org/2000/svg" xmlns:xlink="http://www.w3.org/1999/xlink" 
	 viewBox="0 0 512 512" xml:space="preserve">

<g>
	<path fill="#5639db" d="M251.727,461.739H110.343c-43.785,0-79.405-35.62-79.405-79.405s35.62-79.407,79.405-79.407
			c8.543,0,15.469-6.925,15.469-15.469s-6.925-15.469-15.469-15.469C49.501,271.99,0,321.489,0,382.333
			s49.501,110.343,110.343,110.343h141.385c8.543,0,15.469-6.925,15.469-15.469C267.196,468.664,260.271,461.739,251.727,461.739z"/>
		  <path fill="#bedb39" d="M357.082,213.021c28.528,0,81.489-5.099,115.641-39.251
			c49.131-49.131,38.456-136.147,37.979-139.827c-0.906-6.961-6.386-12.44-13.347-13.345c-0.399-0.053-9.953-1.273-24.186-1.273
			c-28.528,0-81.489,5.099-115.641,39.251c-10.573,10.573-18.371,22.903-24.102,35.777c-5.731-12.875-13.529-25.204-24.102-35.777
			c-34.152-34.152-87.112-39.252-115.641-39.252c-14.233,0-23.787,1.22-24.186,1.273c-6.961,0.905-12.44,6.384-13.345,13.345
			c-0.48,3.68-11.152,90.696,37.978,139.827c34.152,34.151,87.11,39.251,115.641,39.251c0.002,0,0.002,0,0.002,0
			c2.947,0,5.679-0.054,8.185-0.138v76.121c-20.264-20.991-48.565-33.521-79.385-33.521c-24.866,0-48.344,8.079-67.898,23.364
			c-6.731,5.261-7.922,14.983-2.661,21.714s14.983,7.922,21.714,2.661c14.06-10.991,30.95-16.801,48.843-16.801
			c34.988,0,65.466,22.425,75.843,55.799c1.398,4.5,4.772,8.117,9.164,9.826c4.389,1.708,9.322,1.321,13.393-1.05
			c9.034-5.261,19.349-8.042,29.829-8.042c32.749,0,59.393,26.644,59.393,59.393s-26.644,59.393-59.393,59.393h-38.054
			c-8.542,0-15.469,6.925-15.469,15.469c0,8.543,6.927,15.469,15.469,15.469h38.057c49.808,0,90.331-40.522,90.331-90.331
			s-40.521-90.331-90.331-90.331c-6.036,0-12.033,0.617-17.905,1.805V212.882C351.402,212.967,354.135,213.021,357.082,213.021z
			M379.407,80.454c26.266-26.268,70.022-30.191,93.763-30.191c2.812,0,5.41,0.054,7.738,0.138
			c0.851,23.035-1.097,72.528-30.062,101.492c-26.266,26.268-70.022,30.191-93.763,30.191c-2.812,0-5.409-0.054-7.738-0.138
			C348.493,158.911,350.441,109.418,379.407,80.454z M317.48,181.946c-2.32,0.084-4.907,0.138-7.708,0.138
			c-23.743,0-67.497-3.923-93.763-30.191c-28.829-28.828-30.84-78.423-30.033-101.492c2.32-0.084,4.905-0.138,7.708-0.138
			c23.743,0,67.497,3.921,93.763,30.191C316.276,109.282,318.287,158.879,317.48,181.946z"/>
</g>
</svg>